<svg width="494" height="490" viewBox="0 0 494 490" fill="#fff" xmlns="http://www.w3.org/2000/svg">
<path d="M243.508 0.638024C242.84 0.944373 241.092 3.29305 239.55 5.79491C235.028 13.5558 183.787 101.733 183.787 101.835C183.787 101.938 186.151 101.07 189.029 99.9463C226.085 85.701 268.537 86.0584 306.518 101.019C308.008 101.631 309.139 101.938 309.036 101.733C308.882 101.478 295.931 79.1656 280.204 52.0537C264.477 24.9417 250.909 2.16977 250.035 1.35284C248.39 -0.127849 245.718 -0.434199 243.508 0.638024Z" fill="white"/>
<path d="M312.869 23.047C310.724 28.5147 310.213 31.5065 310.213 38.8311C310.213 47.9096 311.847 53.9448 316.137 61.4242C318.742 65.8087 326.81 73.7008 331.406 76.3315C347.033 85.1521 366.439 83.4499 380.075 72.1017C385.335 67.7172 392.024 58.5872 390.85 57.4008C390.595 57.1429 373.231 48.6318 352.242 38.4185L314.094 19.9004L312.869 23.047Z" fill="white"/>
<path d="M138.925 39.3137C110.249 53.0082 100.621 57.8115 100.673 58.4247C100.828 59.9066 104.141 64.8632 107.299 68.2358C112.733 74.1122 120.239 78.5578 128.572 80.755C134.525 82.3391 143.997 82.3391 150.053 80.755C175.002 74.2144 188.719 48.4604 179.972 24.4949C179.299 22.6043 178.471 21.1224 178.005 21.0713C177.591 21.0202 159.992 29.2472 138.925 39.3137Z" fill="white"/>
<path d="M49.6192 93.9157C46.5304 96.9948 45.5009 93.813 68.8209 153.035C80.5066 182.799 90.2876 207.638 90.4935 208.202C90.8024 208.972 91.5746 207.176 93.6338 201.018C106.195 163.042 130.596 132.61 165.138 111.929C167.455 110.543 168.948 109.414 168.484 109.414C168.021 109.414 142.333 105.616 111.343 100.946C80.3522 96.2763 54.1493 92.4788 53.0683 92.4788C51.5754 92.4788 50.7002 92.838 49.6192 93.9157Z" fill="white"/>
<path d="M382.111 100.927C351.065 105.716 325.538 109.63 325.434 109.682C325.331 109.682 327.755 111.227 330.849 113.081C342.556 120.085 356.377 131.518 365.969 142.127C382.111 159.997 392.992 178.846 400.367 201.506L402.997 209.54L424.399 155.156C438.994 118.025 445.852 99.9482 445.956 98.3517C446.11 96.2917 445.956 95.7252 444.666 94.2832C443.48 92.9957 442.707 92.5837 440.902 92.4807C439.612 92.3777 413.363 96.1372 382.111 100.927Z" fill="white"/>
<path d="M13.5416 199.637C5.20686 236.272 4.18418 241.344 4.84892 241.805C5.30913 242.113 9.09302 242.317 13.3371 242.317C22.3878 242.317 26.5296 241.344 33.4838 237.655C44.3241 231.916 51.2272 223.411 54.8065 211.473C55.9826 207.579 56.1871 205.991 56.1871 200.047C56.2383 191.593 55.4713 187.955 51.943 180.833C47.8523 172.431 41.6652 165.924 33.9951 161.876C30.3135 159.929 25.2513 158.033 23.8707 158.033C23.2059 158.033 21.2628 165.77 13.5416 199.637Z" fill="white"/>
<path d="M467.868 158.995C453.986 163.915 443.974 174.778 439.949 189.28C438.659 193.944 438.659 205.063 439.949 210.034C443.768 224.946 455.534 236.886 470.552 241.139C473.854 242.113 475.867 242.317 481.802 242.317C485.776 242.317 489.646 242.164 490.369 241.959L491.659 241.6L482.112 199.785C471.326 152.897 472.874 157.253 467.868 158.995Z" fill="white"/>
<path d="M406.361 228.103C409.909 251.656 407.389 278.288 399.471 301.635C394.226 316.978 385.691 333.501 376.95 345.098C375.408 347.15 374.379 348.844 374.637 348.844C375.511 348.844 490.068 313.489 491.302 312.822C493.615 311.641 494.747 307.588 493.461 305.227C493.05 304.509 416.644 233.389 406.772 224.563L405.692 223.588L406.361 228.103Z" fill="white"/>
<path d="M44.6452 264.657C17.5801 289.831 1.22818 305.43 0.664327 306.562C-0.10457 308.107 -0.15583 308.776 0.254249 310.423C0.561807 311.504 1.22818 312.843 1.79204 313.306C2.71472 314.13 118.511 350.321 119.382 350.012C119.587 349.961 118.254 347.85 116.409 345.327C100.467 323.654 90.369 297.347 86.8321 268.312C85.8581 260.332 86.0119 239.276 87.0883 231.297C87.6009 227.796 87.9085 224.862 87.8572 224.759C87.7547 224.656 68.3273 242.623 44.6452 264.657Z" fill="white"/>
<path d="M124.393 358.626C124.598 360.159 126.699 387.598 129.056 419.635C131.465 451.672 133.566 478.293 133.719 478.753C134.232 480.439 136.948 482.227 139.049 482.227C141.355 482.227 135.974 485.753 201.21 441.402C224.527 425.562 243.539 412.533 243.488 412.43C243.385 412.379 240.003 412.073 235.904 411.766C213.663 410.029 195.624 405.226 176.202 395.875C159.035 387.598 144.481 376.97 130.44 362.408L124.085 355.867L124.393 358.626Z" fill="white"/>
<path d="M360.982 363.648C346.655 378.127 331.506 388.845 313.738 396.986C294.943 405.643 279.075 409.559 254.066 411.672L249.341 412.084L300.437 447.071C339.876 474.02 351.996 482.059 353.485 482.265C355.642 482.522 358.363 481.028 359.185 479.225C359.596 478.297 369.045 356.022 368.737 355.867C368.737 355.867 365.245 359.371 360.982 363.648Z" fill="white"/>
<path d="M52.8754 361.218C47.1932 362.499 41.5109 365.009 37.3 368.135L35.1184 369.723L61.2973 402.872C75.7059 421.164 87.7299 436.278 87.9328 436.585C88.5924 437.251 94.0717 431.667 96.9636 427.312C108.48 410.045 105.994 386.477 91.1291 372.234C82.7579 364.241 73.1184 360.449 61.551 360.552C58.304 360.603 54.3975 360.91 52.8754 361.218Z" fill="white"/>
<path d="M429.597 361.045C420.023 362.885 410.812 368.201 404.861 375.305C391.095 391.661 391.043 414.508 404.705 430.864C406.361 432.858 408.431 434.953 409.259 435.566L410.863 436.64L428.924 414.304C462.199 373.107 464.735 369.938 464.735 369.632C464.735 368.967 458.059 364.981 454.54 363.549C452.625 362.732 449.21 361.709 447.036 361.3C442.741 360.432 433.478 360.278 429.597 361.045Z" fill="white"/>
<path d="M237.515 447.894C227.027 450.181 217.259 456.788 211.347 465.581C206.977 472.087 204.715 478.237 204.047 485.556L203.687 489.317H246.974H290.313L289.953 485.861C287.948 467.208 275.096 452.417 257.153 448.148C252.167 446.979 242.399 446.826 237.515 447.894Z" fill="white"/>
</svg>
